<svg width="1940" height="500" viewBox="0 0 1940 500" fill="none" xmlns="http://www.w3.org/2000/svg"><g clip-path="url(#clip0_1_2)"><path d="M671.544 353.5C658.244 353.5 645.877 351.75 634.444 348.25C623.244 344.75 612.977 339.5 603.644 332.5C594.544 325.267 586.377 316.4 579.144 305.9L605.044 276.15C616.477 292.483 627.444 303.8 637.944 310.1C648.444 316.4 660.927 319.55 675.394 319.55C684.261 319.55 692.311 318.15 699.544 315.35C706.777 312.55 712.494 308.7 716.694 303.8C720.894 298.9 722.994 293.3 722.994 287C722.994 282.8 722.294 278.833 720.894 275.1C719.494 271.367 717.277 267.983 714.244 264.95C711.444 261.917 707.711 259.117 703.044 256.55C698.611 253.983 693.361 251.767 687.294 249.9C681.227 247.8 674.227 246.05 666.294 244.65C653.694 242.083 642.727 238.7 633.394 234.5C624.061 230.3 616.244 225.05 609.944 218.75C603.644 212.45 598.977 205.333 595.944 197.4C592.911 189.233 591.394 180.133 591.394 170.1C591.394 160.3 593.494 151.2 597.694 142.8C602.127 134.4 608.077 127.167 615.544 121.1C623.244 114.8 632.227 110.017 642.494 106.75C652.761 103.25 663.844 101.5 675.744 101.5C688.344 101.5 699.894 103.133 710.394 106.4C720.894 109.667 730.227 114.567 738.394 121.1C746.561 127.4 753.327 135.217 758.694 144.55L732.094 170.8C727.427 163.1 722.177 156.683 716.344 151.55C710.511 146.183 704.094 142.217 697.094 139.65C690.094 136.85 682.627 135.45 674.694 135.45C665.594 135.45 657.661 136.85 650.894 139.65C644.127 142.45 638.761 146.417 634.794 151.55C631.061 156.45 629.194 162.283 629.194 169.05C629.194 173.95 630.127 178.5 631.994 182.7C633.861 186.667 636.661 190.283 640.394 193.55C644.361 196.583 649.611 199.383 656.144 201.95C662.677 204.283 670.494 206.383 679.594 208.25C692.427 211.05 703.861 214.667 713.894 219.1C723.927 223.3 732.444 228.317 739.444 234.15C746.444 239.983 751.694 246.517 755.194 253.75C758.927 260.983 760.794 268.8 760.794 277.2C760.794 292.833 757.177 306.367 749.944 317.8C742.711 329.233 732.444 338.1 719.144 344.4C705.844 350.467 689.977 353.5 671.544 353.5ZM913.752 353.5C896.719 353.5 881.085 350.467 866.852 344.4C852.619 338.333 840.252 329.7 829.752 318.5C819.252 307.067 811.085 293.65 805.252 278.25C799.652 262.85 796.852 245.933 796.852 227.5C796.852 210 799.885 193.783 805.952 178.85C812.252 163.683 820.885 150.383 831.852 138.95C842.819 127.517 855.535 118.65 870.002 112.35C884.469 106.05 900.102 102.9 916.902 102.9C928.802 102.9 940.352 104.767 951.552 108.5C962.985 112 973.252 117.017 982.352 123.55C991.685 129.85 999.269 137.083 1005.1 145.25L979.902 171.5C973.135 164.733 966.252 159.133 959.252 154.7C952.485 150.033 945.485 146.533 938.252 144.2C931.252 141.867 924.135 140.7 916.902 140.7C905.469 140.7 894.735 142.917 884.702 147.35C874.902 151.55 866.269 157.5 858.802 165.2C851.569 172.9 845.852 182.117 841.652 192.85C837.452 203.35 835.352 214.9 835.352 227.5C835.352 240.8 837.335 252.933 841.302 263.9C845.502 274.633 851.335 283.85 858.802 291.55C866.269 299.25 875.135 305.2 885.402 309.4C895.902 313.367 907.452 315.35 920.052 315.35C927.752 315.35 935.335 314.3 942.802 312.2C950.269 310.1 957.269 307.067 963.802 303.1C970.335 299.133 976.285 294.467 981.652 289.1L1000.55 319.9C995.185 326.2 987.835 331.917 978.502 337.05C969.402 342.183 959.135 346.267 947.702 349.3C936.502 352.1 925.185 353.5 913.752 353.5ZM1026.35 350L1121.2 105H1159.7L1253.85 350H1213.6L1157.6 202.3C1156.9 200.667 1155.5 196.7 1153.4 190.4C1151.53 184.1 1149.32 177.1 1146.75 169.4C1144.18 161.7 1141.85 154.7 1139.75 148.4C1137.65 141.867 1136.25 137.667 1135.55 135.8L1143.6 135.45C1142.2 139.417 1140.45 144.433 1138.35 150.5C1136.48 156.567 1134.38 162.983 1132.05 169.75C1129.95 176.517 1127.85 182.933 1125.75 189C1123.65 194.833 1121.9 199.733 1120.5 203.7L1064.85 350H1026.35ZM1068.35 289.1L1082.35 252.7H1193.65L1209.75 289.1H1068.35ZM1326.09 350V141.4H1257.49V105H1434.59V141.4H1363.89V350H1326.09ZM1570 353.5C1552.97 353.5 1537.34 350.467 1523.1 344.4C1508.87 338.333 1496.5 329.7 1486 318.5C1475.5 307.067 1467.34 293.65 1461.5 278.25C1455.9 262.85 1453.1 245.933 1453.1 227.5C1453.1 210 1456.14 193.783 1462.2 178.85C1468.5 163.683 1477.14 150.383 1488.1 138.95C1499.07 127.517 1511.79 118.65 1526.25 112.35C1540.72 106.05 1556.35 102.9 1573.15 102.9C1585.05 102.9 1596.6 104.767 1607.8 108.5C1619.24 112 1629.5 117.017 1638.6 123.55C1647.94 129.85 1655.52 137.083 1661.35 145.25L1636.15 171.5C1629.39 164.733 1622.5 159.133 1615.5 154.7C1608.74 150.033 1601.74 146.533 1594.5 144.2C1587.5 141.867 1580.39 140.7 1573.15 140.7C1561.72 140.7 1550.99 142.917 1540.95 147.35C1531.15 151.55 1522.52 157.5 1515.05 165.2C1507.82 172.9 1502.1 182.117 1497.9 192.85C1493.7 203.35 1491.6 214.9 1491.6 227.5C1491.6 240.8 1493.59 252.933 1497.55 263.9C1501.75 274.633 1507.59 283.85 1515.05 291.55C1522.52 299.25 1531.39 305.2 1541.65 309.4C1552.15 313.367 1563.7 315.35 1576.3 315.35C1584 315.35 1591.59 314.3 1599.05 312.2C1606.52 310.1 1613.52 307.067 1620.05 303.1C1626.59 299.133 1632.54 294.467 1637.9 289.1L1656.8 319.9C1651.44 326.2 1644.09 331.917 1634.75 337.05C1625.65 342.183 1615.39 346.267 1603.95 349.3C1592.75 352.1 1581.44 353.5 1570 353.5ZM1868.1 350V105H1905.9V350H1868.1ZM1708.15 350V105H1745.95V350H1708.15ZM1724.6 246.05V209.65H1884.9V246.05H1724.6Z" fill="white"/><path fill-rule="evenodd" clip-rule="evenodd" d="M246.005 495.434C381.869 495.434 492.009 385.294 492.009 249.429C492.009 113.565 381.869 3.42465 246.005 3.42465C110.14 3.42465 0 113.565 0 249.429C0 385.294 110.14 495.434 246.005 495.434ZM246.989 469.849C368.18 469.849 466.425 371.604 466.425 250.413C466.425 129.222 368.18 30.9772 246.989 30.9772C125.797 30.9772 27.5525 129.222 27.5525 250.413C27.5525 371.604 125.797 469.849 246.989 469.849Z" fill="white"/><path d="M231.878 3.82346C236.553 3.55878 241.263 3.42465 246.005 3.42465C381.869 3.42465 492.009 113.565 492.009 249.429C492.009 259.036 491.458 268.514 490.387 277.834C462.146 298.477 428.604 310.438 392.623 310.438C292.083 310.438 210.58 217.04 210.58 101.826C210.58 66.4031 218.285 33.042 231.878 3.82346Z" fill="white"/><path d="M0.0108107 251.766C30.4342 225.583 68.249 210.068 109.226 210.068C209.766 210.068 291.269 303.467 291.269 418.68C291.269 444.935 287.037 470.056 279.312 493.198C268.419 494.672 257.301 495.434 246.005 495.434C110.92 495.434 1.26518 386.555 0.0108107 251.766Z" fill="white"/></g><defs><clipPath id="clip0_1_2"><rect width="1940" height="500" fill="white"/></clipPath></defs></svg>