<svg width="1995" height="500" viewBox="0 0 1995 500" fill="none" xmlns="http://www.w3.org/2000/svg"><mask id="path-1-inside-1_0_1" fill="white"><path d="M4.4887 297.406C62.061 238.343 131.452 212.341 186.897 236.799C261.223 269.587 285.473 382.019 248.764 499.997C127.451 499.41 26.5646 412.417 4.4887 297.406Z"/><path d="M272.523 1.00087C382.874 10.8545 472.586 92.41 494.742 198.748C445.355 239.543 387.696 254.796 339.569 233.566C269.042 202.455 242.579 103.398 272.523 1.00087Z"/><path d="M500 250C500 388.071 388.071 500 250 500C111.929 500 0 388.071 0 250C0 111.929 111.929 0 250 0C388.071 0 500 111.929 500 250Z"/></mask><path d="M4.4887 297.406C62.061 238.343 131.452 212.341 186.897 236.799C261.223 269.587 285.473 382.019 248.764 499.997C127.451 499.41 26.5646 412.417 4.4887 297.406Z" fill="white"/><path d="M272.523 1.00087C382.874 10.8545 472.586 92.41 494.742 198.748C445.355 239.543 387.696 254.796 339.569 233.566C269.042 202.455 242.579 103.398 272.523 1.00087Z" fill="white"/><path d="M4.4887 297.406C62.061 238.343 131.452 212.341 186.897 236.799C261.223 269.587 285.473 382.019 248.764 499.997C127.451 499.41 26.5646 412.417 4.4887 297.406Z" stroke="white" stroke-width="40" mask="url(#path-1-inside-1_0_1)"/><path d="M272.523 1.00087C382.874 10.8545 472.586 92.41 494.742 198.748C445.355 239.543 387.696 254.796 339.569 233.566C269.042 202.455 242.579 103.398 272.523 1.00087Z" stroke="white" stroke-width="40" mask="url(#path-1-inside-1_0_1)"/><path d="M500 250C500 388.071 388.071 500 250 500C111.929 500 0 388.071 0 250C0 111.929 111.929 0 250 0C388.071 0 500 111.929 500 250Z" stroke="white" stroke-width="40" mask="url(#path-1-inside-1_0_1)"/><path d="M725.9 384.5C712.6 384.5 700.233 382.75 688.8 379.25C677.6 375.75 667.333 370.5 658 363.5C648.9 356.267 640.733 347.4 633.5 336.9L659.4 307.15C670.833 323.483 681.8 334.8 692.3 341.1C702.8 347.4 715.283 350.55 729.75 350.55C738.617 350.55 746.667 349.15 753.9 346.35C761.133 343.55 766.85 339.7 771.05 334.8C775.25 329.9 777.35 324.3 777.35 318C777.35 313.8 776.65 309.833 775.25 306.1C773.85 302.367 771.633 298.983 768.6 295.95C765.8 292.917 762.067 290.117 757.4 287.55C752.967 284.983 747.717 282.767 741.65 280.9C735.583 278.8 728.583 277.05 720.65 275.65C708.05 273.083 697.083 269.7 687.75 265.5C678.417 261.3 670.6 256.05 664.3 249.75C658 243.45 653.333 236.333 650.3 228.4C647.267 220.233 645.75 211.133 645.75 201.1C645.75 191.3 647.85 182.2 652.05 173.8C656.483 165.4 662.433 158.167 669.9 152.1C677.6 145.8 686.583 141.017 696.85 137.75C707.117 134.25 718.2 132.5 730.1 132.5C742.7 132.5 754.25 134.133 764.75 137.4C775.25 140.667 784.583 145.567 792.75 152.1C800.917 158.4 807.683 166.217 813.05 175.55L786.45 201.8C781.783 194.1 776.533 187.683 770.7 182.55C764.867 177.183 758.45 173.217 751.45 170.65C744.45 167.85 736.983 166.45 729.05 166.45C719.95 166.45 712.017 167.85 705.25 170.65C698.483 173.45 693.117 177.417 689.15 182.55C685.417 187.45 683.55 193.283 683.55 200.05C683.55 204.95 684.483 209.5 686.35 213.7C688.217 217.667 691.017 221.283 694.75 224.55C698.717 227.583 703.967 230.383 710.5 232.95C717.033 235.283 724.85 237.383 733.95 239.25C746.783 242.05 758.217 245.667 768.25 250.1C778.283 254.3 786.8 259.317 793.8 265.15C800.8 270.983 806.05 277.517 809.55 284.75C813.283 291.983 815.15 299.8 815.15 308.2C815.15 323.833 811.533 337.367 804.3 348.8C797.067 360.233 786.8 369.1 773.5 375.4C760.2 381.467 744.333 384.5 725.9 384.5ZM968.108 384.5C951.075 384.5 935.442 381.467 921.208 375.4C906.975 369.333 894.608 360.7 884.108 349.5C873.608 338.067 865.442 324.65 859.608 309.25C854.008 293.85 851.208 276.933 851.208 258.5C851.208 241 854.242 224.783 860.308 209.85C866.608 194.683 875.242 181.383 886.208 169.95C897.175 158.517 909.892 149.65 924.358 143.35C938.825 137.05 954.458 133.9 971.258 133.9C983.158 133.9 994.708 135.767 1005.91 139.5C1017.34 143 1027.61 148.017 1036.71 154.55C1046.04 160.85 1053.62 168.083 1059.46 176.25L1034.26 202.5C1027.49 195.733 1020.61 190.133 1013.61 185.7C1006.84 181.033 999.842 177.533 992.608 175.2C985.608 172.867 978.492 171.7 971.258 171.7C959.825 171.7 949.092 173.917 939.058 178.35C929.258 182.55 920.625 188.5 913.158 196.2C905.925 203.9 900.208 213.117 896.008 223.85C891.808 234.35 889.708 245.9 889.708 258.5C889.708 271.8 891.692 283.933 895.658 294.9C899.858 305.633 905.692 314.85 913.158 322.55C920.625 330.25 929.492 336.2 939.758 340.4C950.258 344.367 961.808 346.35 974.408 346.35C982.108 346.35 989.692 345.3 997.158 343.2C1004.62 341.1 1011.62 338.067 1018.16 334.1C1024.69 330.133 1030.64 325.467 1036.01 320.1L1054.91 350.9C1049.54 357.2 1042.19 362.917 1032.86 368.05C1023.76 373.183 1013.49 377.267 1002.06 380.3C990.858 383.1 979.542 384.5 968.108 384.5ZM1080.71 381L1175.56 136H1214.06L1308.21 381H1267.96L1211.96 233.3C1211.26 231.667 1209.86 227.7 1207.76 221.4C1205.89 215.1 1203.67 208.1 1201.11 200.4C1198.54 192.7 1196.21 185.7 1194.11 179.4C1192.01 172.867 1190.61 168.667 1189.91 166.8L1197.96 166.45C1196.56 170.417 1194.81 175.433 1192.71 181.5C1190.84 187.567 1188.74 193.983 1186.41 200.75C1184.31 207.517 1182.21 213.933 1180.11 220C1178.01 225.833 1176.26 230.733 1174.86 234.7L1119.21 381H1080.71ZM1122.71 320.1L1136.71 283.7H1248.01L1264.11 320.1H1122.71ZM1380.44 381V172.4H1311.84V136H1488.94V172.4H1418.24V381H1380.44ZM1624.36 384.5C1607.32 384.5 1591.69 381.467 1577.46 375.4C1563.22 369.333 1550.86 360.7 1540.36 349.5C1529.86 338.067 1521.69 324.65 1515.86 309.25C1510.26 293.85 1507.46 276.933 1507.46 258.5C1507.46 241 1510.49 224.783 1516.56 209.85C1522.86 194.683 1531.49 181.383 1542.46 169.95C1553.42 158.517 1566.14 149.65 1580.61 143.35C1595.07 137.05 1610.71 133.9 1627.51 133.9C1639.41 133.9 1650.96 135.767 1662.16 139.5C1673.59 143 1683.86 148.017 1692.96 154.55C1702.29 160.85 1709.87 168.083 1715.71 176.25L1690.51 202.5C1683.74 195.733 1676.86 190.133 1669.86 185.7C1663.09 181.033 1656.09 177.533 1648.86 175.2C1641.86 172.867 1634.74 171.7 1627.51 171.7C1616.07 171.7 1605.34 173.917 1595.31 178.35C1585.51 182.55 1576.87 188.5 1569.41 196.2C1562.17 203.9 1556.46 213.117 1552.26 223.85C1548.06 234.35 1545.96 245.9 1545.96 258.5C1545.96 271.8 1547.94 283.933 1551.91 294.9C1556.11 305.633 1561.94 314.85 1569.41 322.55C1576.87 330.25 1585.74 336.2 1596.01 340.4C1606.51 344.367 1618.06 346.35 1630.66 346.35C1638.36 346.35 1645.94 345.3 1653.41 343.2C1660.87 341.1 1667.87 338.067 1674.41 334.1C1680.94 330.133 1686.89 325.467 1692.26 320.1L1711.16 350.9C1705.79 357.2 1698.44 362.917 1689.11 368.05C1680.01 373.183 1669.74 377.267 1658.31 380.3C1647.11 383.1 1635.79 384.5 1624.36 384.5ZM1922.46 381V136H1960.26V381H1922.46ZM1762.51 381V136H1800.31V381H1762.51ZM1778.96 277.05V240.65H1939.26V277.05H1778.96Z" fill="white"/></svg>