<svg width="500" height="500" viewBox="0 0 500 500" fill="none" xmlns="http://www.w3.org/2000/svg"><g clip-path="url(#clip0_0_1)"><mask id="path-2-inside-1_0_1" fill="white"><path d="M4.4887 297.406C62.061 238.343 131.452 212.341 186.897 236.799C261.223 269.587 285.473 382.019 248.764 499.997C127.451 499.41 26.5646 412.417 4.4887 297.406Z"/><path d="M272.523 1.00087C382.874 10.8545 472.586 92.41 494.742 198.748C445.355 239.543 387.696 254.796 339.569 233.566C269.042 202.455 242.579 103.398 272.523 1.00087Z"/><path d="M500 250C500 388.071 388.071 500 250 500C111.929 500 0 388.071 0 250C0 111.929 111.929 0 250 0C388.071 0 500 111.929 500 250Z"/></mask><path d="M4.4887 297.406C62.061 238.343 131.452 212.341 186.897 236.799C261.223 269.587 285.473 382.019 248.764 499.997C127.451 499.41 26.5646 412.417 4.4887 297.406Z" fill="white"/><path d="M272.523 1.00087C382.874 10.8545 472.586 92.41 494.742 198.748C445.355 239.543 387.696 254.796 339.569 233.566C269.042 202.455 242.579 103.398 272.523 1.00087Z" fill="white"/><path d="M4.4887 297.406C62.061 238.343 131.452 212.341 186.897 236.799C261.223 269.587 285.473 382.019 248.764 499.997C127.451 499.41 26.5646 412.417 4.4887 297.406Z" stroke="white" stroke-width="40" mask="url(#path-2-inside-1_0_1)"/><path d="M272.523 1.00087C382.874 10.8545 472.586 92.41 494.742 198.748C445.355 239.543 387.696 254.796 339.569 233.566C269.042 202.455 242.579 103.398 272.523 1.00087Z" stroke="white" stroke-width="40" mask="url(#path-2-inside-1_0_1)"/><path d="M500 250C500 388.071 388.071 500 250 500C111.929 500 0 388.071 0 250C0 111.929 111.929 0 250 0C388.071 0 500 111.929 500 250Z" stroke="white" stroke-width="40" mask="url(#path-2-inside-1_0_1)"/></g><defs><clipPath id="clip0_0_1"><rect width="500" height="500" rx="250" fill="white"/></clipPath></defs></svg>